<?xml version="1.0" encoding="utf-8" standalone="no"?>
<!DOCTYPE svg PUBLIC "-//W3C//DTD SVG 1.1//EN"
  "http://www.w3.org/Graphics/SVG/1.1/DTD/svg11.dtd">
<!-- Created with matplotlib (http://matplotlib.org/) -->
<svg height="617pt" version="1.1" viewBox="0 0 1225 617" width="1225pt" xmlns="http://www.w3.org/2000/svg" xmlns:xlink="http://www.w3.org/1999/xlink">
 <defs>
  <style type="text/css">
*{stroke-linecap:butt;stroke-linejoin:round;}
  </style>
 </defs>
 <g id="figure_1">
  <g id="patch_1">
   <path d="
M0 617.4
L1225.8 617.4
L1225.8 0
L0 0
z
" style="fill:#ffffff;"/>
  </g>
  <g id="axes_1">
   <g id="patch_2">
    <path d="
M153.225 555.66
L1103.22 555.66
L1103.22 61.74
L153.225 61.74
z
" style="fill:#eeeeee;"/>
   </g>
   <g id="matplotlib.axis_1">
    <g id="xtick_1">
     <g id="line2d_1">
      <path clip-path="url(#p9a11e312da)" d="
M153.225 555.66
L153.225 61.74" style="fill:none;stroke:#000000;stroke-dasharray:1.000000,3.000000;stroke-dashoffset:0.0;stroke-width:0.5;"/>
     </g>
     <g id="line2d_2">
      <defs>
       <path d="
M0 0
L0 0" id="m1d870bcb37" style="stroke:#555555;stroke-width:0.5;"/>
      </defs>
      <g>
       <use style="fill:#555555;stroke:#555555;stroke-width:0.5;" x="153.225" xlink:href="#m1d870bcb37" y="555.66"/>
      </g>
     </g>
     <g id="line2d_3">
      <g>
       <use style="fill:#555555;stroke:#555555;stroke-width:0.5;" x="153.225" xlink:href="#m1d870bcb37" y="61.74"/>
      </g>
     </g>
     <g id="text_1">
      <!-- 21.5 -->
      <defs>
       <path d="
M29.7031 4.59375
C29.7031 7.70312 27.0938 10.2969 23.7969 10.2969
C20.5 10.2969 17.9062 7.70312 17.9062 4.59375
C17.9062 1.40625 20.5 -1.20312 23.7969 -1.20312
C27.0938 -1.20312 29.7031 1.40625 29.7031 4.59375" id="Inconsolata-2e"/>
       <path d="
M29.9062 62.2969
L25.0938 62.2969
L8.79688 53.7969
L10.4062 49.9062
L22.9062 53.5938
L22.9062 -0.09375
L29.9062 -0.09375
z
" id="Inconsolata-31"/>
       <path d="
M7.70312 52.5938
L12.7969 48.5
C13.4062 49.4062 13.0938 50 13.7031 50.7969
C15.2031 53.0938 18.9062 56.5 24.2969 56.5
C31 56.5 36.2969 51.4062 36.2969 44.7031
C36.2969 37.0938 29.9062 31.5938 25.4062 27.5
C18.2969 21.0938 12.5 14.7031 7.29688 4.40625
L7.29688 0
L43.9062 0
L43.9062 6.90625
C43.2031 7.20312 42.7031 6.70312 42.5 6.5
C42.0938 6.09375 41.9062 6.09375 41.5 6.09375
L15.2969 6.09375
C20.5 15.0938 27.7969 21.2969 32.2969 25.5
C36.7969 29.7969 43.2031 36.2031 43.2031 45.2031
C43.2031 54.9062 35.2969 62.7031 25.2031 62.7031
C18.0938 62.7031 11.4062 58.9062 7.70312 52.5938" id="Inconsolata-32"/>
       <path d="
M10.5938 62.2969
L8.40625 30.5938
L12.9062 28.7969
C15.9062 32.5938 20.2969 34.7031 24.5938 34.7031
C31.0938 34.7031 37.2969 29.7031 37.2969 19.7969
C37.2969 10.2031 31.4062 5 24.7031 5
C18 5 13.5938 10.0938 13.2969 10.7031
C12.9062 11.5 13.4062 12.5 12.5 13.0938
L6.29688 8.40625
C10.5 2.29688 17.4062 -1.20312 24.7969 -1.20312
C35.5938 -1.20312 44.5 6.09375 44.5 19.5938
C44.5 33 36.0938 40.4062 25.5938 40.4062
C22.2031 40.4062 18.7031 39.5938 15.5 38
L16.4062 56
L42.2031 56
L42.2031 62.2969
z
" id="Inconsolata-35"/>
      </defs>
      <g style="fill:#555555;" transform="translate(141.9928125 569.62875)scale(0.12 -0.12)">
       <use xlink:href="#Inconsolata-32"/>
       <use x="49.99998474121094" xlink:href="#Inconsolata-31"/>
       <use x="99.99996948242188" xlink:href="#Inconsolata-2e"/>
       <use x="149.9999542236328" xlink:href="#Inconsolata-35"/>
      </g>
     </g>
    </g>
    <g id="xtick_2">
     <g id="line2d_4">
      <path clip-path="url(#p9a11e312da)" d="
M271.974 555.66
L271.974 61.74" style="fill:none;stroke:#000000;stroke-dasharray:1.000000,3.000000;stroke-dashoffset:0.0;stroke-width:0.5;"/>
     </g>
     <g id="line2d_5">
      <g>
       <use style="fill:#555555;stroke:#555555;stroke-width:0.5;" x="271.974375" xlink:href="#m1d870bcb37" y="555.66"/>
      </g>
     </g>
     <g id="line2d_6">
      <g>
       <use style="fill:#555555;stroke:#555555;stroke-width:0.5;" x="271.974375" xlink:href="#m1d870bcb37" y="61.74"/>
      </g>
     </g>
     <g id="text_2">
      <!-- 22.0 -->
      <defs>
       <path d="
M25.0938 62.7031
C15.2031 62.7031 5 50.5 5 30.5938
C5 10.4062 15.2969 -1.20312 25.2031 -1.20312
C34.2031 -1.20312 44.9062 8.59375 44.9062 30.0938
C44.9062 51.2969 34.7031 62.7031 25.0938 62.7031
M34.7969 48.4062
L12.9062 20
C12 23.5 11.5 27.4062 11.5 31.7969
C11.5 47.7969 18.7969 56.5938 25 56.5938
C28.4062 56.5938 32.0938 53.9062 34.7969 48.4062
M37.0938 41.7969
C38 38.2969 38.4062 34.0938 38.4062 29.2031
C38.4062 11.7969 30.9062 5.20312 25.4062 5.20312
C21.7031 5.20312 17.9062 8.20312 15.2031 13.7031
z
" id="Inconsolata-30"/>
      </defs>
      <g style="fill:#555555;" transform="translate(260.7178125 569.62875)scale(0.12 -0.12)">
       <use xlink:href="#Inconsolata-32"/>
       <use x="49.99998474121094" xlink:href="#Inconsolata-32"/>
       <use x="99.99996948242188" xlink:href="#Inconsolata-2e"/>
       <use x="149.9999542236328" xlink:href="#Inconsolata-30"/>
      </g>
     </g>
    </g>
    <g id="xtick_3">
     <g id="line2d_7">
      <path clip-path="url(#p9a11e312da)" d="
M390.724 555.66
L390.724 61.74" style="fill:none;stroke:#000000;stroke-dasharray:1.000000,3.000000;stroke-dashoffset:0.0;stroke-width:0.5;"/>
     </g>
     <g id="line2d_8">
      <g>
       <use style="fill:#555555;stroke:#555555;stroke-width:0.5;" x="390.72375" xlink:href="#m1d870bcb37" y="555.66"/>
      </g>
     </g>
     <g id="line2d_9">
      <g>
       <use style="fill:#555555;stroke:#555555;stroke-width:0.5;" x="390.72375" xlink:href="#m1d870bcb37" y="61.74"/>
      </g>
     </g>
     <g id="text_3">
      <!-- 22.5 -->
      <g style="fill:#555555;" transform="translate(379.4915625 569.62875)scale(0.12 -0.12)">
       <use xlink:href="#Inconsolata-32"/>
       <use x="49.99998474121094" xlink:href="#Inconsolata-32"/>
       <use x="99.99996948242188" xlink:href="#Inconsolata-2e"/>
       <use x="149.9999542236328" xlink:href="#Inconsolata-35"/>
      </g>
     </g>
    </g>
    <g id="xtick_4">
     <g id="line2d_10">
      <path clip-path="url(#p9a11e312da)" d="
M509.473 555.66
L509.473 61.74" style="fill:none;stroke:#000000;stroke-dasharray:1.000000,3.000000;stroke-dashoffset:0.0;stroke-width:0.5;"/>
     </g>
     <g id="line2d_11">
      <g>
       <use style="fill:#555555;stroke:#555555;stroke-width:0.5;" x="509.473125" xlink:href="#m1d870bcb37" y="555.66"/>
      </g>
     </g>
     <g id="line2d_12">
      <g>
       <use style="fill:#555555;stroke:#555555;stroke-width:0.5;" x="509.473125" xlink:href="#m1d870bcb37" y="61.74"/>
      </g>
     </g>
     <g id="text_4">
      <!-- 23.0 -->
      <defs>
       <path d="
M41 46.7031
C41 55.2031 33.7969 62.5 23.9062 62.5
C18.2969 62.5 12.7969 60.0938 8.90625 55.7969
L12.7969 51.5
C15.7031 54.5938 19.7031 56.2969 23.5938 56.2969
C30 56.2969 34.4062 51.7969 34.4062 46.5
C34.4062 42.7969 32.0938 38.5938 27.7031 36.7031
C26.5938 36.2969 23.7969 35.2031 17.9062 35.2031
L17.9062 29.5938
C18.9062 29.7031 20 29.7969 21.0938 29.7969
C29.5 29.7969 35.7031 25.4062 35.7031 17.9062
C35.7031 11.0938 30.5 5.20312 23.2031 5.20312
C17.4062 5.20312 13.9062 9 13.4062 9.5
C12.5938 10.4062 13 11.4062 12.0938 12.2969
L6.90625 6
C11 1.29688 17 -1.09375 23.2031 -1.09375
C35.2031 -1.09375 42.4062 7.40625 42.4062 17.0938
C42.4062 24.5 38.2031 30.7969 31.7031 33.2031
C37.2969 35.2969 41 40.5938 41 46.7031" id="Inconsolata-33"/>
      </defs>
      <g style="fill:#555555;" transform="translate(498.2165625 569.62875)scale(0.12 -0.12)">
       <use xlink:href="#Inconsolata-32"/>
       <use x="49.99998474121094" xlink:href="#Inconsolata-33"/>
       <use x="99.99996948242188" xlink:href="#Inconsolata-2e"/>
       <use x="149.9999542236328" xlink:href="#Inconsolata-30"/>
      </g>
     </g>
    </g>
    <g id="xtick_5">
     <g id="line2d_13">
      <path clip-path="url(#p9a11e312da)" d="
M628.222 555.66
L628.222 61.74" style="fill:none;stroke:#000000;stroke-dasharray:1.000000,3.000000;stroke-dashoffset:0.0;stroke-width:0.5;"/>
     </g>
     <g id="line2d_14">
      <g>
       <use style="fill:#555555;stroke:#555555;stroke-width:0.5;" x="628.2225" xlink:href="#m1d870bcb37" y="555.66"/>
      </g>
     </g>
     <g id="line2d_15">
      <g>
       <use style="fill:#555555;stroke:#555555;stroke-width:0.5;" x="628.2225" xlink:href="#m1d870bcb37" y="61.74"/>
      </g>
     </g>
     <g id="text_5">
      <!-- 23.5 -->
      <g style="fill:#555555;" transform="translate(616.9903125 569.62875)scale(0.12 -0.12)">
       <use xlink:href="#Inconsolata-32"/>
       <use x="49.99998474121094" xlink:href="#Inconsolata-33"/>
       <use x="99.99996948242188" xlink:href="#Inconsolata-2e"/>
       <use x="149.9999542236328" xlink:href="#Inconsolata-35"/>
      </g>
     </g>
    </g>
    <g id="xtick_6">
     <g id="line2d_16">
      <path clip-path="url(#p9a11e312da)" d="
M746.972 555.66
L746.972 61.74" style="fill:none;stroke:#000000;stroke-dasharray:1.000000,3.000000;stroke-dashoffset:0.0;stroke-width:0.5;"/>
     </g>
     <g id="line2d_17">
      <g>
       <use style="fill:#555555;stroke:#555555;stroke-width:0.5;" x="746.971875" xlink:href="#m1d870bcb37" y="555.66"/>
      </g>
     </g>
     <g id="line2d_18">
      <g>
       <use style="fill:#555555;stroke:#555555;stroke-width:0.5;" x="746.971875" xlink:href="#m1d870bcb37" y="61.74"/>
      </g>
     </g>
     <g id="text_6">
      <!-- 24.0 -->
      <defs>
       <path d="
M31.2969 62.2969
L4.79688 22.4062
L4.79688 17.2031
L29.9062 17.2031
L29.9062 0
L37.0938 0
L37.0938 17.0938
L45.2031 17.0938
L45.2031 23.2969
L37.0938 23.2969
L37.0938 62.2969
z

M30 51.2031
L30 23.2969
L11.7031 23.2969
z
" id="Inconsolata-34"/>
      </defs>
      <g style="fill:#555555;" transform="translate(735.7153125 569.62875)scale(0.12 -0.12)">
       <use xlink:href="#Inconsolata-32"/>
       <use x="49.99998474121094" xlink:href="#Inconsolata-34"/>
       <use x="99.99996948242188" xlink:href="#Inconsolata-2e"/>
       <use x="149.9999542236328" xlink:href="#Inconsolata-30"/>
      </g>
     </g>
    </g>
    <g id="xtick_7">
     <g id="line2d_19">
      <path clip-path="url(#p9a11e312da)" d="
M865.721 555.66
L865.721 61.74" style="fill:none;stroke:#000000;stroke-dasharray:1.000000,3.000000;stroke-dashoffset:0.0;stroke-width:0.5;"/>
     </g>
     <g id="line2d_20">
      <g>
       <use style="fill:#555555;stroke:#555555;stroke-width:0.5;" x="865.72125" xlink:href="#m1d870bcb37" y="555.66"/>
      </g>
     </g>
     <g id="line2d_21">
      <g>
       <use style="fill:#555555;stroke:#555555;stroke-width:0.5;" x="865.72125" xlink:href="#m1d870bcb37" y="61.74"/>
      </g>
     </g>
     <g id="text_7">
      <!-- 24.5 -->
      <g style="fill:#555555;" transform="translate(854.4890625 569.62875)scale(0.12 -0.12)">
       <use xlink:href="#Inconsolata-32"/>
       <use x="49.99998474121094" xlink:href="#Inconsolata-34"/>
       <use x="99.99996948242188" xlink:href="#Inconsolata-2e"/>
       <use x="149.9999542236328" xlink:href="#Inconsolata-35"/>
      </g>
     </g>
    </g>
    <g id="xtick_8">
     <g id="line2d_22">
      <path clip-path="url(#p9a11e312da)" d="
M984.471 555.66
L984.471 61.74" style="fill:none;stroke:#000000;stroke-dasharray:1.000000,3.000000;stroke-dashoffset:0.0;stroke-width:0.5;"/>
     </g>
     <g id="line2d_23">
      <g>
       <use style="fill:#555555;stroke:#555555;stroke-width:0.5;" x="984.470625" xlink:href="#m1d870bcb37" y="555.66"/>
      </g>
     </g>
     <g id="line2d_24">
      <g>
       <use style="fill:#555555;stroke:#555555;stroke-width:0.5;" x="984.470625" xlink:href="#m1d870bcb37" y="61.74"/>
      </g>
     </g>
     <g id="text_8">
      <!-- 25.0 -->
      <g style="fill:#555555;" transform="translate(973.2140625 569.62875)scale(0.12 -0.12)">
       <use xlink:href="#Inconsolata-32"/>
       <use x="49.99998474121094" xlink:href="#Inconsolata-35"/>
       <use x="99.99996948242188" xlink:href="#Inconsolata-2e"/>
       <use x="149.9999542236328" xlink:href="#Inconsolata-30"/>
      </g>
     </g>
    </g>
    <g id="xtick_9">
     <g id="line2d_25">
      <path clip-path="url(#p9a11e312da)" d="
M1103.22 555.66
L1103.22 61.74" style="fill:none;stroke:#000000;stroke-dasharray:1.000000,3.000000;stroke-dashoffset:0.0;stroke-width:0.5;"/>
     </g>
     <g id="line2d_26">
      <g>
       <use style="fill:#555555;stroke:#555555;stroke-width:0.5;" x="1103.22" xlink:href="#m1d870bcb37" y="555.66"/>
      </g>
     </g>
     <g id="line2d_27">
      <g>
       <use style="fill:#555555;stroke:#555555;stroke-width:0.5;" x="1103.22" xlink:href="#m1d870bcb37" y="61.74"/>
      </g>
     </g>
     <g id="text_9">
      <!-- 25.5 -->
      <g style="fill:#555555;" transform="translate(1091.9878125 569.62875)scale(0.12 -0.12)">
       <use xlink:href="#Inconsolata-32"/>
       <use x="49.99998474121094" xlink:href="#Inconsolata-35"/>
       <use x="99.99996948242188" xlink:href="#Inconsolata-2e"/>
       <use x="149.9999542236328" xlink:href="#Inconsolata-35"/>
      </g>
     </g>
    </g>
   </g>
   <g id="matplotlib.axis_2">
    <g id="ytick_1">
     <g id="line2d_28">
      <path clip-path="url(#p9a11e312da)" d="
M153.225 555.66
L1103.22 555.66" style="fill:none;stroke:#000000;stroke-dasharray:1.000000,3.000000;stroke-dashoffset:0.0;stroke-width:0.5;"/>
     </g>
     <g id="line2d_29">
      <g>
       <use style="fill:#555555;stroke:#555555;stroke-width:0.5;" x="153.225" xlink:href="#m1d870bcb37" y="555.66"/>
      </g>
     </g>
     <g id="line2d_30">
      <g>
       <use style="fill:#555555;stroke:#555555;stroke-width:0.5;" x="1103.22" xlink:href="#m1d870bcb37" y="555.66"/>
      </g>
     </g>
     <g id="text_10">
      <!-- 0.0 -->
      <g style="fill:#555555;" transform="translate(130.43625 558.6421875)scale(0.12 -0.12)">
       <use xlink:href="#Inconsolata-30"/>
       <use x="49.99998474121094" xlink:href="#Inconsolata-2e"/>
       <use x="99.99996948242188" xlink:href="#Inconsolata-30"/>
      </g>
     </g>
    </g>
    <g id="ytick_2">
     <g id="line2d_31">
      <path clip-path="url(#p9a11e312da)" d="
M153.225 473.34
L1103.22 473.34" style="fill:none;stroke:#000000;stroke-dasharray:1.000000,3.000000;stroke-dashoffset:0.0;stroke-width:0.5;"/>
     </g>
     <g id="line2d_32">
      <g>
       <use style="fill:#555555;stroke:#555555;stroke-width:0.5;" x="153.225" xlink:href="#m1d870bcb37" y="473.34"/>
      </g>
     </g>
     <g id="line2d_33">
      <g>
       <use style="fill:#555555;stroke:#555555;stroke-width:0.5;" x="1103.22" xlink:href="#m1d870bcb37" y="473.34"/>
      </g>
     </g>
     <g id="text_11">
      <!-- 0.1 -->
      <g style="fill:#555555;" transform="translate(132.23625 476.3221875)scale(0.12 -0.12)">
       <use xlink:href="#Inconsolata-30"/>
       <use x="49.99998474121094" xlink:href="#Inconsolata-2e"/>
       <use x="99.99996948242188" xlink:href="#Inconsolata-31"/>
      </g>
     </g>
    </g>
    <g id="ytick_3">
     <g id="line2d_34">
      <path clip-path="url(#p9a11e312da)" d="
M153.225 391.02
L1103.22 391.02" style="fill:none;stroke:#000000;stroke-dasharray:1.000000,3.000000;stroke-dashoffset:0.0;stroke-width:0.5;"/>
     </g>
     <g id="line2d_35">
      <g>
       <use style="fill:#555555;stroke:#555555;stroke-width:0.5;" x="153.225" xlink:href="#m1d870bcb37" y="391.02"/>
      </g>
     </g>
     <g id="line2d_36">
      <g>
       <use style="fill:#555555;stroke:#555555;stroke-width:0.5;" x="1103.22" xlink:href="#m1d870bcb37" y="391.02"/>
      </g>
     </g>
     <g id="text_12">
      <!-- 0.2 -->
      <g style="fill:#555555;" transform="translate(130.55625 394.0021875)scale(0.12 -0.12)">
       <use xlink:href="#Inconsolata-30"/>
       <use x="49.99998474121094" xlink:href="#Inconsolata-2e"/>
       <use x="99.99996948242188" xlink:href="#Inconsolata-32"/>
      </g>
     </g>
    </g>
    <g id="ytick_4">
     <g id="line2d_37">
      <path clip-path="url(#p9a11e312da)" d="
M153.225 308.7
L1103.22 308.7" style="fill:none;stroke:#000000;stroke-dasharray:1.000000,3.000000;stroke-dashoffset:0.0;stroke-width:0.5;"/>
     </g>
     <g id="line2d_38">
      <g>
       <use style="fill:#555555;stroke:#555555;stroke-width:0.5;" x="153.225" xlink:href="#m1d870bcb37" y="308.7"/>
      </g>
     </g>
     <g id="line2d_39">
      <g>
       <use style="fill:#555555;stroke:#555555;stroke-width:0.5;" x="1103.22" xlink:href="#m1d870bcb37" y="308.7"/>
      </g>
     </g>
     <g id="text_13">
      <!-- 0.3 -->
      <g style="fill:#555555;" transform="translate(130.73625 311.6821875)scale(0.12 -0.12)">
       <use xlink:href="#Inconsolata-30"/>
       <use x="49.99998474121094" xlink:href="#Inconsolata-2e"/>
       <use x="99.99996948242188" xlink:href="#Inconsolata-33"/>
      </g>
     </g>
    </g>
    <g id="ytick_5">
     <g id="line2d_40">
      <path clip-path="url(#p9a11e312da)" d="
M153.225 226.38
L1103.22 226.38" style="fill:none;stroke:#000000;stroke-dasharray:1.000000,3.000000;stroke-dashoffset:0.0;stroke-width:0.5;"/>
     </g>
     <g id="line2d_41">
      <g>
       <use style="fill:#555555;stroke:#555555;stroke-width:0.5;" x="153.225" xlink:href="#m1d870bcb37" y="226.38"/>
      </g>
     </g>
     <g id="line2d_42">
      <g>
       <use style="fill:#555555;stroke:#555555;stroke-width:0.5;" x="1103.22" xlink:href="#m1d870bcb37" y="226.38"/>
      </g>
     </g>
     <g id="text_14">
      <!-- 0.4 -->
      <g style="fill:#555555;" transform="translate(130.400625 229.3621875)scale(0.12 -0.12)">
       <use xlink:href="#Inconsolata-30"/>
       <use x="49.99998474121094" xlink:href="#Inconsolata-2e"/>
       <use x="99.99996948242188" xlink:href="#Inconsolata-34"/>
      </g>
     </g>
    </g>
    <g id="ytick_6">
     <g id="line2d_43">
      <path clip-path="url(#p9a11e312da)" d="
M153.225 144.06
L1103.22 144.06" style="fill:none;stroke:#000000;stroke-dasharray:1.000000,3.000000;stroke-dashoffset:0.0;stroke-width:0.5;"/>
     </g>
     <g id="line2d_44">
      <g>
       <use style="fill:#555555;stroke:#555555;stroke-width:0.5;" x="153.225" xlink:href="#m1d870bcb37" y="144.06"/>
      </g>
     </g>
     <g id="line2d_45">
      <g>
       <use style="fill:#555555;stroke:#555555;stroke-width:0.5;" x="1103.22" xlink:href="#m1d870bcb37" y="144.06"/>
      </g>
     </g>
     <g id="text_15">
      <!-- 0.5 -->
      <g style="fill:#555555;" transform="translate(130.485 147.0421875)scale(0.12 -0.12)">
       <use xlink:href="#Inconsolata-30"/>
       <use x="49.99998474121094" xlink:href="#Inconsolata-2e"/>
       <use x="99.99996948242188" xlink:href="#Inconsolata-35"/>
      </g>
     </g>
    </g>
    <g id="ytick_7">
     <g id="line2d_46">
      <path clip-path="url(#p9a11e312da)" d="
M153.225 61.74
L1103.22 61.74" style="fill:none;stroke:#000000;stroke-dasharray:1.000000,3.000000;stroke-dashoffset:0.0;stroke-width:0.5;"/>
     </g>
     <g id="line2d_47">
      <g>
       <use style="fill:#555555;stroke:#555555;stroke-width:0.5;" x="153.225" xlink:href="#m1d870bcb37" y="61.74"/>
      </g>
     </g>
     <g id="line2d_48">
      <g>
       <use style="fill:#555555;stroke:#555555;stroke-width:0.5;" x="1103.22" xlink:href="#m1d870bcb37" y="61.74"/>
      </g>
     </g>
     <g id="text_16">
      <!-- 0.6 -->
      <defs>
       <path d="
M28.7031 63
C21.2031 63 13.2031 58.4062 9.29688 47.5
C7.20312 41.5938 6.70312 34.2969 6.70312 28.2969
C6.70312 21 7.40625 13.2031 11.4062 7.20312
C15 1.70312 20.5938 -1.09375 26.0938 -1.09375
C35.5938 -1.09375 43.9062 6.90625 43.9062 19.7969
C43.9062 32.7031 35.5938 40.2031 26.7969 40.2031
C21.4062 40.2031 16.2969 37.2969 13.5938 32.7031
C14 54 24.2031 56.7969 28.7031 56.7969
C32.7969 56.7969 35.5938 54.5938 36 54.2031
C36.5938 53.5 36.5938 52.5938 37.5 51.9062
L42.2969 57.2969
C38.7031 60.9062 33.7031 63 28.7031 63
M26.0938 34
C31.0938 34 37.0938 30.0938 37.0938 19.4062
C37.0938 9.70312 31.7031 5.09375 26.4062 5.09375
C18.7969 5.09375 13.0938 14 13.9062 25.7031
C16.7031 30.7969 21.5 34 26.0938 34" id="Inconsolata-36"/>
      </defs>
      <g style="fill:#555555;" transform="translate(130.55625 64.7221875)scale(0.12 -0.12)">
       <use xlink:href="#Inconsolata-30"/>
       <use x="49.99998474121094" xlink:href="#Inconsolata-2e"/>
       <use x="99.99996948242188" xlink:href="#Inconsolata-36"/>
      </g>
     </g>
    </g>
   </g>
   <g id="patch_3">
    <path clip-path="url(#p9a11e312da)" d="
M196.686 555.66
L278.976 555.66
L278.976 436.868
L196.686 436.868
z
" style="fill:#348abd;stroke:#7cb8db;stroke-linejoin:miter;stroke-width:0.9;"/>
   </g>
   <g id="patch_4">
    <path clip-path="url(#p9a11e312da)" d="
M278.976 555.66
L361.267 555.66
L361.267 365.594
L278.976 365.594
z
" style="fill:#348abd;stroke:#7cb8db;stroke-linejoin:miter;stroke-width:0.9;"/>
   </g>
   <g id="patch_5">
    <path clip-path="url(#p9a11e312da)" d="
M361.267 555.66
L443.558 555.66
L443.558 341.835
L361.267 341.835
z
" style="fill:#348abd;stroke:#7cb8db;stroke-linejoin:miter;stroke-width:0.9;"/>
   </g>
   <g id="patch_6">
    <path clip-path="url(#p9a11e312da)" d="
M443.558 555.66
L525.849 555.66
L525.849 246.802
L443.558 246.802
z
" style="fill:#348abd;stroke:#7cb8db;stroke-linejoin:miter;stroke-width:0.9;"/>
   </g>
   <g id="patch_7">
    <path clip-path="url(#p9a11e312da)" d="
M525.849 555.66
L608.139 555.66
L608.139 318.077
L525.849 318.077
z
" style="fill:#348abd;stroke:#7cb8db;stroke-linejoin:miter;stroke-width:0.9;"/>
   </g>
   <g id="patch_8">
    <path clip-path="url(#p9a11e312da)" d="
M608.139 555.66
L690.43 555.66
L690.43 294.319
L608.139 294.319
z
" style="fill:#348abd;stroke:#7cb8db;stroke-linejoin:miter;stroke-width:0.9;"/>
   </g>
   <g id="patch_9">
    <path clip-path="url(#p9a11e312da)" d="
M690.43 555.66
L772.721 555.66
L772.721 270.56
L690.43 270.56
z
" style="fill:#348abd;stroke:#7cb8db;stroke-linejoin:miter;stroke-width:0.9;"/>
   </g>
   <g id="patch_10">
    <path clip-path="url(#p9a11e312da)" d="
M772.721 555.66
L855.012 555.66
L855.012 128.01
L772.721 128.01
z
" style="fill:#348abd;stroke:#7cb8db;stroke-linejoin:miter;stroke-width:0.9;"/>
   </g>
   <g id="patch_11">
    <path clip-path="url(#p9a11e312da)" d="
M855.012 555.66
L937.302 555.66
L937.302 341.835
L855.012 341.835
z
" style="fill:#348abd;stroke:#7cb8db;stroke-linejoin:miter;stroke-width:0.9;"/>
   </g>
   <g id="patch_12">
    <path clip-path="url(#p9a11e312da)" d="
M937.302 555.66
L1019.59 555.66
L1019.59 436.868
L937.302 436.868
z
" style="fill:#348abd;stroke:#7cb8db;stroke-linejoin:miter;stroke-width:0.9;"/>
   </g>
   <g id="line2d_49">
    <path clip-path="url(#p9a11e312da)" d="
M153.225 528.337
L162.821 525.339
L172.417 522.084
L182.013 518.557
L191.609 514.746
L201.205 510.64
L210.8 506.225
L220.396 501.493
L229.992 496.433
L239.588 491.036
L249.184 485.298
L258.78 479.211
L268.376 472.773
L277.972 465.983
L287.568 458.841
L297.164 451.352
L306.76 443.52
L316.355 435.355
L325.951 426.868
L335.547 418.073
L345.143 408.988
L354.739 399.634
L364.335 390.033
L373.931 380.213
L383.527 370.204
L393.123 360.037
L402.719 349.748
L412.315 339.376
L421.91 328.962
L431.506 318.547
L441.102 308.178
L450.698 297.901
L460.294 287.765
L469.89 277.817
L479.486 268.109
L489.082 258.69
L498.678 249.61
L508.274 240.918
L517.87 232.663
L527.465 224.892
L537.061 217.649
L546.657 210.977
L556.253 204.915
L565.849 199.5
L575.445 194.766
L585.041 190.741
L594.637 187.45
L604.233 184.914
L613.829 183.149
L623.425 182.166
L633.02 181.971
L642.616 182.565
L652.212 183.945
L661.808 186.103
L671.404 189.023
L681 192.689
L690.596 197.076
L700.192 202.159
L709.788 207.906
L719.384 214.282
L728.98 221.248
L738.575 228.764
L748.171 236.786
L757.767 245.268
L767.363 254.162
L776.959 263.42
L786.555 272.992
L796.151 282.828
L805.747 292.878
L815.343 303.091
L824.939 313.421
L834.535 323.819
L844.13 334.239
L853.726 344.637
L863.322 354.971
L872.918 365.203
L882.514 375.294
L892.11 385.212
L901.706 394.924
L911.302 404.403
L920.898 413.624
L930.494 422.564
L940.09 431.205
L949.685 439.531
L959.281 447.528
L968.877 455.188
L978.473 462.502
L988.069 469.465
L997.665 476.077
L1007.26 482.337
L1016.86 488.247
L1026.45 493.812
L1036.05 499.037
L1045.64 503.93
L1055.24 508.5
L1064.84 512.757
L1074.43 516.712
L1084.03 520.378
L1093.62 523.765
L1103.22 526.889" style="fill:none;stroke:#7a68a6;stroke-linecap:square;stroke-width:4;"/>
   </g>
   <g id="line2d_50">
    <path clip-path="url(#p9a11e312da)" d="
M153.225 529.711
L162.821 526.609
L172.417 523.223
L182.013 519.537
L191.609 515.536
L201.205 511.208
L210.8 506.541
L220.396 501.523
L229.992 496.144
L239.588 490.398
L249.184 484.277
L258.78 477.779
L268.376 470.902
L277.972 463.648
L287.568 456.02
L297.164 448.026
L306.76 439.676
L316.355 430.983
L325.951 421.963
L335.547 412.638
L345.143 403.031
L354.739 393.168
L364.335 383.079
L373.931 372.798
L383.527 362.361
L393.123 351.808
L402.719 341.181
L412.315 330.524
L421.91 319.884
L431.506 309.309
L441.102 298.849
L450.698 288.555
L460.294 278.478
L469.89 268.67
L479.486 259.183
L489.082 250.066
L498.678 241.369
L508.274 233.141
L517.87 225.426
L527.465 218.268
L537.061 211.707
L546.657 205.78
L556.253 200.521
L565.849 195.958
L575.445 192.117
L585.041 189.018
L594.637 186.677
L604.233 185.105
L613.829 184.309
L623.425 184.29
L633.02 185.044
L642.616 186.564
L652.212 188.836
L661.808 191.842
L671.404 195.562
L681 199.969
L690.596 205.034
L700.192 210.724
L709.788 217.003
L719.384 223.833
L728.98 231.171
L738.575 238.976
L748.171 247.202
L757.767 255.804
L767.363 264.736
L776.959 273.951
L786.555 283.403
L796.151 293.045
L805.747 302.831
L815.343 312.718
L824.939 322.663
L834.535 332.624
L844.13 342.561
L853.726 352.438
L863.322 362.22
L872.918 371.873
L882.514 381.369
L892.11 390.679
L901.706 399.778
L911.302 408.645
L920.898 417.26
L930.494 425.607
L940.09 433.67
L949.685 441.44
L959.281 448.906
L968.877 456.062
L978.473 462.903
L988.069 469.427
L997.665 475.634
L1007.26 481.523
L1016.86 487.099
L1026.45 492.366
L1036.05 497.33
L1045.64 501.996
L1055.24 506.375
L1064.84 510.473
L1074.43 514.301
L1084.03 517.869
L1093.62 521.187
L1103.22 524.267" style="fill:none;stroke:#a60628;stroke-linecap:square;stroke-width:4;"/>
   </g>
   <g id="line2d_51">
    <path clip-path="url(#p9a11e312da)" d="
M153.225 555.66
L162.821 555.66
L172.417 555.66
L182.013 523.387
L191.609 500.817
L201.205 483.753
L210.8 469.376
L220.396 456.712
L229.992 445.279
L239.588 434.797
L249.184 425.083
L258.78 416.011
L268.376 407.489
L277.972 399.447
L287.568 391.83
L297.164 384.597
L306.76 377.712
L316.355 371.145
L325.951 364.873
L335.547 358.876
L345.143 353.135
L354.739 347.635
L364.335 342.364
L373.931 337.311
L383.527 332.464
L393.123 327.816
L402.719 323.358
L412.315 319.084
L421.91 314.987
L431.506 311.063
L441.102 307.305
L450.698 303.71
L460.294 300.274
L469.89 296.994
L479.486 293.866
L489.082 290.887
L498.678 288.056
L508.274 285.371
L517.87 282.828
L527.465 280.428
L537.061 278.169
L546.657 276.05
L556.253 274.07
L565.849 272.228
L575.445 270.525
L585.041 268.959
L594.637 267.532
L604.233 266.244
L613.829 265.095
L623.425 264.085
L633.02 263.217
L642.616 262.49
L652.212 261.908
L661.808 261.47
L671.404 261.18
L681 261.04
L690.596 261.051
L700.192 261.218
L709.788 261.543
L719.384 262.029
L728.98 262.682
L738.575 263.504
L748.171 264.502
L757.767 265.681
L767.363 267.046
L776.959 268.604
L786.555 270.364
L796.151 272.333
L805.747 274.52
L815.343 276.937
L824.939 279.595
L834.535 282.507
L844.13 285.689
L853.726 289.158
L863.322 292.934
L872.918 297.04
L882.514 301.502
L892.11 306.354
L901.706 311.631
L911.302 317.38
L920.898 323.655
L930.494 330.526
L940.09 338.078
L949.685 346.425
L959.281 355.717
L968.877 366.163
L978.473 378.065
L988.069 391.896
L997.665 408.467
L1007.26 429.399
L1016.86 459.049
L1026.45 555.66
L1036.05 555.66
L1045.64 555.66
L1055.24 555.66
L1064.84 555.66
L1074.43 555.66
L1084.03 555.66
L1093.62 555.66
L1103.22 555.66" style="fill:none;stroke:#467821;stroke-linecap:square;stroke-width:4;"/>
   </g>
   <g id="patch_13">
    <path d="
M153.225 555.66
L1103.22 555.66" style="fill:none;stroke:#bcbcbc;stroke-linecap:square;stroke-linejoin:miter;"/>
   </g>
   <g id="patch_14">
    <path d="
M153.225 61.74
L1103.22 61.74" style="fill:none;stroke:#bcbcbc;stroke-linecap:square;stroke-linejoin:miter;"/>
   </g>
   <g id="patch_15">
    <path d="
M153.225 555.66
L153.225 61.74" style="fill:none;stroke:#bcbcbc;stroke-linecap:square;stroke-linejoin:miter;"/>
   </g>
   <g id="patch_16">
    <path d="
M1103.22 555.66
L1103.22 61.74" style="fill:none;stroke:#bcbcbc;stroke-linecap:square;stroke-linejoin:miter;"/>
   </g>
   <g id="legend_1">
    <g id="patch_17">
     <path d="
M1012.53 132.316
L1093.14 132.316
Q1096.02 132.316 1096.02 129.436
L1096.02 71.82
Q1096.02 68.94 1093.14 68.94
L1012.53 68.94
Q1009.65 68.94 1009.65 71.82
L1009.65 129.436
Q1009.65 132.316 1012.53 132.316
z
" style="fill:#eeeeee;stroke:#bcbcbc;stroke-linejoin:miter;stroke-width:0.9;"/>
    </g>
    <g id="line2d_52">
     <path d="
M1019.73 79.74
L1039.89 79.74" style="fill:none;stroke:#7a68a6;stroke-linecap:square;stroke-width:4;"/>
    </g>
    <g id="line2d_53"/>
    <g id="text_17">
     <!-- Norm -->
     <defs>
      <path d="
M3.70312 0
L10.2969 0
L10.2969 30.4062
C10.2969 32.5938 10.5 34.5938 11.7969 37
C13.4062 40 15.4062 41.2031 17.2969 41.2031
C18.9062 41.2031 20.7031 40.2031 21.5 37.7031
C22.0938 35.7969 22 33.5938 22 31.7031
L22 0
L28.7031 0
L28.7031 30.2031
C28.7031 32.5938 28.9062 34.5 30.5938 37.4062
C31.4062 38.5938 33.0938 41.5 35.9062 41.5
C37.4062 41.5 38.7969 40.5938 39.5 38.9062
C40.4062 37 40.2031 34.4062 40.2031 32.2969
L40.2031 -0.09375
L47 -0.09375
L47 32.4062
C47 36.2031 47.0938 40 45.0938 43.0938
C43.4062 45.7031 40.5 46.7031 38 46.7031
C33.5938 46.7031 29.5 44.0938 27.7031 40.0938
C27 43.9062 23.7969 46.7031 19.7031 46.7031
C15.9062 46.7031 12.4062 44.2969 10.2969 41.0938
L10.4062 45.5938
L3.70312 45.5938
z
" id="Inconsolata-6d"/>
      <path d="
M5 0
L11.7031 0
L11.7031 49
L39.0938 -0.09375
L44.7031 -0.09375
L44.7031 59.7031
C44.7031 60.4062 44.7969 60.5938 45.0938 61.0938
C45.2031 61.2969 45.4062 61.7969 45.2969 62.2969
L37.9062 62.2969
L37.9062 16.0938
L11.7969 62.2969
L5 62.2969
z
" id="Inconsolata-4e"/>
      <path d="
M46 22.5938
C46 38.4062 36 46.5938 25.5938 46.5938
C14 46.5938 4 36.5938 4 22.4062
C4 8.5 13.9062 -1.29688 25.4062 -1.29688
C36.2031 -1.29688 46 7.40625 46 22.5938
M25.0938 40.5
C31.7031 40.5 38.7031 34.7969 38.7031 22.2969
C38.7031 10.7969 32.0938 5 25.5 5
C18.2031 5 11.5938 11.7969 11.5938 23.0938
C11.5938 34.2969 18.0938 40.5 25.0938 40.5" id="Inconsolata-6f"/>
      <path d="
M9.90625 45.5938
L9.90625 -0.09375
L17.0938 -0.09375
L17.0938 22.0938
C17.0938 24.9062 17.2031 27.9062 20.2969 32.7969
C24.5 39.4062 29.9062 40.5 33.2031 40.5
C37 40.5 39.4062 38.7031 40.7031 37.0938
C41.2969 36.2969 41.5938 35.5 42.4062 34.7969
L45.7969 41.7031
C42.9062 44.7031 38.7031 46.7031 33.5938 46.7031
C26.9062 46.7031 20.0938 43.2969 17.0938 36.7969
L17.4062 45.5938
z
" id="Inconsolata-72"/>
     </defs>
     <g transform="translate(1055.727 84.78)scale(0.144 -0.144)">
      <use xlink:href="#Inconsolata-4e"/>
      <use x="49.99998474121094" xlink:href="#Inconsolata-6f"/>
      <use x="99.99996948242188" xlink:href="#Inconsolata-72"/>
      <use x="149.9999542236328" xlink:href="#Inconsolata-6d"/>
     </g>
    </g>
    <g id="line2d_54">
     <path d="
M1019.73 99.4253
L1039.89 99.4253" style="fill:none;stroke:#a60628;stroke-linecap:square;stroke-width:4;"/>
    </g>
    <g id="line2d_55"/>
    <g id="text_18">
     <!-- Gamma -->
     <defs>
      <path d="
M9 40.2969
L12.5 35.7031
C16.2969 39.5938 21.4062 40.7969 25.7031 40.7969
C31.0938 40.7969 33.7969 38.5 35.0938 36.4062
C36.5938 33.9062 36.5 30.9062 36.5 28.5
L36.5 26.9062
L35.0938 26.9062
C28.2969 26.9062 21.0938 26.9062 15.2969 24.7969
C8.09375 22.2031 4.90625 16.7969 4.90625 11.7969
C4.90625 5.09375 10.7031 -1.20312 20.2031 -1.20312
C25.7969 -1.20312 31.5938 0.90625 36.5938 5
L36.5938 0
L43.4062 0
L43.4062 28.2969
C43.4062 32 43.2969 35.5 41.2031 39.0938
C38.2031 44 32.4062 46.5938 25.2969 46.5938
C19.2031 46.5938 13.2969 44.7031 9 40.2969
M36.7969 21.4062
L36.7969 18.2969
C36.7969 16 36.7969 13 33.7031 9.70312
C32 8 27.7031 4.29688 21.7031 4.29688
C15.5938 4.29688 12.0938 8.20312 12.0938 12.2031
C12.0938 15.5938 14.4062 19.2969 20.0938 20.7031
C24.2969 21.7031 30.4062 21.4062 35.2031 21.4062
z
" id="Inconsolata-61"/>
      <path d="
M27.7031 62.9062
C19.4062 62.9062 3.59375 57.7031 3.59375 30.4062
C3.59375 6.79688 16.7969 -1 27.5938 -1
C33.4062 -1 40.0938 1.09375 45.9062 5.5
L45.9062 29.7969
L28.2031 29.7969
L28.2031 23.7969
L39.5 23.7969
L39.5 8.90625
C36 6.40625 32 5.09375 28.2969 5.09375
C24.2031 5.09375 19.7969 6.70312 16.4062 10.5938
C11.2031 16.5 10.5 25.2969 10.5 31.7969
C10.5 37.5938 11.2031 43.2031 13.5938 47.7969
C16.7969 53.9062 22.4062 56.7031 27.5938 56.7031
C33.2031 56.7031 37.5938 53.5938 39.5 49.4062
C39.7969 48.7031 40.0938 47.9062 40.9062 47.4062
L45.7969 52.4062
C42.2031 58.9062 35.4062 62.9062 27.7031 62.9062" id="Inconsolata-47"/>
     </defs>
     <g transform="translate(1055.727 104.46525)scale(0.144 -0.144)">
      <use xlink:href="#Inconsolata-47"/>
      <use x="49.99998474121094" xlink:href="#Inconsolata-61"/>
      <use x="99.99996948242188" xlink:href="#Inconsolata-6d"/>
      <use x="149.9999542236328" xlink:href="#Inconsolata-6d"/>
      <use x="199.99993896484375" xlink:href="#Inconsolata-61"/>
     </g>
    </g>
    <g id="line2d_56">
     <path d="
M1019.73 119.111
L1039.89 119.111" style="fill:none;stroke:#467821;stroke-linecap:square;stroke-width:4;"/>
    </g>
    <g id="line2d_57"/>
    <g id="text_19">
     <!-- Beta -->
     <defs>
      <path d="
M4.79688 62.2969
L4.79688 0
L22.4062 0
C26.5938 0 30.9062 0 35.2031 1.79688
C41.9062 4.70312 45.5938 10.7969 45.5938 17.2031
C45.5938 24.5 40.9062 31 34 33.2969
C39.5 35.5938 43.2031 41.0938 43.2031 47
C43.2031 52.5938 40 58 34.0938 60.5
C30.2031 62.2031 26.2969 62.2969 22.5 62.2969
z

M11.7031 56.2969
L21.5 56.2969
C24.2031 56.2969 27 56.2969 29.7969 55.2031
C33.9062 53.5 36.0938 50 36.0938 46.4062
C36.0938 42.7969 34 39.4062 30.0938 37.7031
C27.2031 36.5 24.2031 36.5 21.4062 36.5
L11.7031 36.5
z

M11.7031 30.5938
L21.9062 30.5938
C25 30.5938 28.0938 30.5 31.2031 29
C35.7969 26.9062 38.2969 22.4062 38.2969 17.9062
C38.2969 13.4062 35.9062 9.29688 31.5938 7.29688
C28.9062 6.09375 26.2969 6.09375 23.5938 6.09375
L11.7031 6.09375
z
" id="Inconsolata-42"/>
      <path d="
M18.7969 57.9062
L17.9062 45.5938
L7 45.5938
L6.90625 39.7031
L17.5938 39.7031
C17 31.9062 16.7031 24.0938 16.7031 16.4062
C16.7031 12.2969 16.7031 7.70312 19.4062 3.90625
C21.5938 0.90625 25.0938 -0.90625 29.7969 -0.90625
C35.2031 -0.90625 40.5 1.40625 44.4062 4.20312
L42.2031 9.90625
C38.2969 7 34.7031 5.70312 31.9062 5.70312
C28.5 5.70312 25 7.59375 24.2031 13.0938
C24.2031 13.5 23.9062 15.2031 23.9062 21.9062
C23.9062 27.7969 24.2031 33.7969 24.7969 39.7031
L39.7969 39.7031
L39.7969 45.7031
L24.9062 45.7031
C24.9062 45.7031 25.5938 53.9062 26.0938 56.5
C26.2031 57.5 27 58.0938 26.5938 59.2031
z
" id="Inconsolata-74"/>
      <path d="
M25.7969 46.7031
C14.9062 46.7031 4.79688 38.9062 4.79688 22.2969
C4.79688 7 14.2969 -1.09375 26.7031 -1.09375
C33.2969 -1.09375 39.2031 1.29688 43.0938 6
L39.0938 9.90625
C36.2031 6.5 31.7969 4.70312 27.2969 4.70312
C21.2031 4.70312 12.2969 8.09375 11.7969 21.7969
L44.2031 21.7969
C44.5 24.9062 44.4062 27.9062 43.9062 30.5
C41.7969 42.7969 33.2969 46.7031 25.7969 46.7031
M12 27.2969
C13.5 38.0938 20.4062 41.2031 25.2969 41.2031
C32.7031 41.2031 38 34.7031 37.0938 27.2969
z
" id="Inconsolata-65"/>
     </defs>
     <g transform="translate(1055.727 124.1505)scale(0.144 -0.144)">
      <use xlink:href="#Inconsolata-42"/>
      <use x="49.99998474121094" xlink:href="#Inconsolata-65"/>
      <use x="99.99996948242188" xlink:href="#Inconsolata-74"/>
      <use x="149.9999542236328" xlink:href="#Inconsolata-61"/>
     </g>
    </g>
   </g>
  </g>
 </g>
 <defs>
  <clipPath id="p9a11e312da">
   <rect height="493.92" width="949.995" x="153.225" y="61.74"/>
  </clipPath>
 </defs>
</svg>
